<?xml version="1.0" encoding="utf-8"?>
<!-- Generator: Adobe Illustrator 18.0.0, SVG Export Plug-In . SVG Version: 6.00 Build 0)  -->
<!DOCTYPE svg PUBLIC "-//W3C//DTD SVG 1.1//EN" "http://www.w3.org/Graphics/SVG/1.1/DTD/svg11.dtd">
<svg version="1.1" id="Layer_1" xmlns="http://www.w3.org/2000/svg" xmlns:xlink="http://www.w3.org/1999/xlink" x="0px" y="0px"
	 viewBox="0 0 522 466" style="enable-background:new 0 0 522 466;" xml:space="preserve">
<style type="text/css">
	.st0{fill:#84A4C5;}
	.st1{
	fill-rule:evenodd;
	clip-rule:evenodd;
	fill:none;
	stroke:#84A4C5;
	stroke-width:4;
	stroke-miterlimit:10;
	stroke-dasharray:1600;
	stroke-dashoffset: 0;
	-webkit-animation: dash 24s linear forwards;
	-o-animation: dash 24s linear forwards;
	-moz-animation: dash 24s linear forwards;
	animation: dash 24s linear forwards ;
	}

	@-webkit-keyframes dash {
		from{	
			stroke-dashoffset: 1600;
		}
		to { stroke-dashoffset: 0; }
	}
</style>
<g>
	<path class="st0" d="M83,303.1c0-3,0-6,0-9c2.5-2.2,2.6-5.2,2.9-8.1c0.2-2.3,0.3-5,2.1-6.5c4.9-4.3,6.9-9.9,8.2-16
		c0.3-1.5,0.3-3.3,1.2-4.2c4.2-4.6,2.7-9.6,1.2-14.4c-0.7-2.4-0.6-4.6,0.4-6.7c1.9-4,3.8-8.1,6.1-11.8c2.5-3.9,5-7.5,2.8-12.5
		c-0.4-0.9-0.1-2.5,0.4-3.3c6.9-10.8,13.3-21.9,21-32.2c7.3-9.8,12.2-19.8,10.7-32.3c-0.5-4.2,0-8.6,0-12.9c0-2.8,1.6-4.5,4.2-4.7
		c1.9-0.2,4.9-1.3,4.9,2.5c0,1,0.9,0.7,1.4,0.9c4.8,1.7,9.8,0.4,14.7,1.1c1.5,0.2,2.9-0.7,4-1.8c5.2-5.2,8.8-11.4,10.7-18.6
		c1.8-6.4,9.7-14.9,20.2-13.7c3.2,0.4,4.8-1.3,6.1-3.9c1.4-2.7,1.2-7,4.7-7.7c4.8-1,7.6-4.2,11.1-7c2.5-2,3.5-5.8,5.7-6.7
		c3-1.2,6.9-1.8,10.5-1.1c1.4,0.3,3.1,0.3,3.5-1c1.5-4.2,4.4-6.5,8.2-8.8c3.4-2.1,5.6-3,6.8,0.6c2.5,7.5,8,12.8,12.8,18.5
		c2,2.3,3,6.7,8.2,5c1.2-0.4,6.1,1.1,6.3,1.7c1.6,3.7,3.9,3,6.8,2.4c2.8-0.5,5.2,0.6,6.6,3.3c0.4,0.8,0.4,2.2,1.9,1.5
		c3.1-1.4,5.2,0.5,7.7,1.9c3.2,1.8,7.3,2.1,9.3-1.3c1.9-3.2,3.9-3,6.9-2.9c4.3,0.2,8-1.3,10.6-5.2c1-1.4-0.2-4.2,2.2-4.3
		c2,0,3.2,2,4.6,3.4c1.8,1.8,5.2,3.1,5.6,5c0.9,4.2,3.2,3.9,6.1,3.5c1.3-0.2,2.4,0.2,3,1.3c0.7,1.4-1,1.4-1.4,2.1
		c-1.3,3-2.8,6.1-3.5,9.3c-0.5,2.3,2,2.6,3.7,3.3c0.4,0.2,0.9,1,0.8,1.2c-1.7,3,0.8,5.1,1.9,7.1c3,5.6,6.8,10.5,13.8,11.6
		c3.2,0.5,7.9,1.9,8.3,4c0.7,3.3,2.4,5.7,3.6,8.5c0.8,2,1.2,3.2,3.1,1.1c0.6-0.7,1.4-0.8,2.1-0.1c2,2.2,6.6,2.8,7.1,2.4
		c3.3-3,9.7,7.8,10.9-2.5c0,0,0.8,0,1.2,0c1.5,0,3-1.1,4.2,1c1.2,2.2,1.2,4-0.3,5.9c0,0.4-0.1,0.8-0.1,1.1c0.3-0.2,0.6-0.3,0.9-0.5
		c6.6-0.5,8.4,0.8,9.7,7.4c0.2,1.1,0.5,2.1,1.5,2.3c6.4,1.6,2.5,6.4,3,9.7c0.1,0.7-0.4,2-1.7,2.2c-1.3,0.2-2.7-0.6-2.8-1.6
		c-0.2-4.3-3.5-3.6-6.2-4.6c-2.9-1.1-3.5-0.5-4.2,2c-0.8,2.6-2.8,3.2-5.1,1.8c-4.9-2.8-7.6-2-9.5,3.4c-1.2,3.3-1.9,6.7-3,10
		c-2.4,7.5-1,14.8,1.7,21.8c1,2.7,4.8,4,3.6,8.2c2.9-3.7,5.6-6.4,8.9-0.9c0.1,0.2,0.7,0.2,1,0.1c5.5-1.3,10.3,3.8,16.3,1.8
		c-1.1,1.9-2.8,2.9-4.1,4.3c-1.6,1.7-3.4,4.2-1.9,6.2c4.3,5.5,3.7,13.1,8.4,18.3c1.4,1.6,1.5,3.3-1.3,3.8c-3.4,0.7-6.1,2.6-8,5.5
		c-1.6,2.5-3.8,3.8-6.2,5.3c-4.5,2.7-9.8,5.2-9.6,12c0.3,10.4,4.8,19.8,6.3,29.9c5,3,1.5,7,0.8,10.3c-1.6,7.2-0.6,9.4,6.7,11.2
		c1,0.2,2.5-0.3,2,1.8c-0.8,3.3,0.7,7.6-4.8,9.2c3.3,0.7,3.4,2.3,2.9,4.8c-0.9,4.7,1.5,7.2,6.2,7.5c0.8,0.1,1.6,0.4,2.4,0.6
		c4.6,1.4,5.2,2.9,2,6.7c-3.4,4.1-6.7,7.2-3.9,13.8c1.4,3.3-1.2,9-3.5,13.7c-6.7-6.6-10.3-15-17.7-20.1c-0.3,1.7-1.8,2.7-3.7,3.8
		c-4.2,2.5-8.1,5.7-10.9,9.9c-1.5,2.2,1.5,6.7-4.2,6.8c-2.8,0-2.1,5.3-5.3,6.3c-0.9,0.3-1.3,2-2.8,1.2c-0.2-2,2.9-3,1.5-5.5
		c-2.1,0.5-3.8,1.5-5.6,2.8c-2.6,1.9-5.9,3.3-8.6,1.4c-1.7-1.2-3.7-1.5-4.8-1.1c-2.1,0.9-2.7-0.2-3.3-1.5c-1.6-3.2-2.9-1.4-4.1,0.3
		c-1.2,1.7-0.4,3.5-0.2,5.3c0.4,3.7-1.3,6.7-3.7,9.4c-2.2,2.5-3.8-0.5-5.6-0.6c-0.8,0-1.9-0.3-2.4,0.1c-3.6,2.6-7.1,1.7-10.7,0.2
		c-1.1-0.4-2.3-1-3.3-0.1c-2.3,2.1-3.5,0.1-3.7-1.4c-0.4-3-2.1-1.7-3.6-1.7c-2.5,0-1.8,1.7-1.7,3.1c0.1,2.4,1.5,6.5-0.8,6.8
		c-5.4,0.9-7.5,6.4-12.5,7.4c-0.7,0.1-2.2-0.6-2.1,0.2c0.6,4.5-3.2,3.1-5.1,4.2c-2.2,1.3-4.8,2.3-5.8,5.1c-0.2,0.6-0.1,2.1-1.2,1.5
		c-4-2.2-1.6,1.2-2,2.1c-0.9,2.5,1.8,3.2,2.7,4.7c0.8,1.3,1.2,2.4-0.1,2.6c-4.1,0.7-7.8,5.9-12.6,1.4c-1.7-1.6-4.3-3.4-4.5,1.5
		c-0.1,2.2-1.8,0.9-3,0.9c-1.6,0-3.9-1.2-4.7,1.2c-1,3.4-3.9,5.1-5.7,7.6c-2.1,3-3.4-1-4.9,0.2c-0.7-1.6-0.6-2.8,1.2-3.6
		c0.8-0.3,1.3-0.8,1.2-1.9c-0.7-6.8-2.5-13.4-5.8-19.4c-0.9-1.6-3-1.3-3.9-0.4c-2.1,2.3-3.8,3.6-6.4,0.8c-0.7-0.8-1.7-0.1-2.1,0.5
		c-3.4,4.2-4.2,0.3-5.3-1.7c-0.6-1.1,0-2.7-1.8-3.3c-0.3,2-0.6,4.2-3.2,4.2c-2.8,0-1.6-2.8-2.5-4.1c-1.6-2.3,0.5-4,0.9-5.9
		c1-4.5-1.1-9-5.6-9c-5.2,0-11-2.2-15.3,2.9c-0.4,0.5-1.2,0.5-1.8-0.4c0.4-2,1.3-4,2.9-5.4c7.2-6.3,7-14.9-0.8-20
		c-1.3-0.8-1.5-1.8-2.1-2.9c-2.2-4.4-6.9-6.4-10.1-9.9c-2.3-2.5-6.5-3.1-8.6-6.3c-0.5-0.7-0.9-1.2-1.8-1.3
		c-6.6-0.6-9.9-1.9-13.8-5.1c-0.6-0.5-1.6-0.6-2.3-0.5c-3.9,0.2-7.8,0.1-11.6,0.7c-8.2,1.2-16.4,3.3-24.7,4c-4.7,0.4-8.5,4-13.1,3.3
		c-4.4-0.7-6.4,1-7,5.1c-5.4-4.1-5.4-4.1-2.8-9.7c0.5-1-0.1-1.6-0.8-2.1c-1.9-1.2-1.4-2.8-1.5-4.7c-0.2-3.7-2.2-7-3.9-10.2
		c-0.3-0.6-2-1.2-2.6-0.9c-2.6,1.1-5.4-0.2-7.8,0.7c-4.7,1.7-5.3-2.1-4.2-4.2c2.2-4.4-1.7-9.5,2.3-13.3c0.2-0.2-0.3-1.2-0.7-1.7
		c-2.2-3.1-2.4-6.6-2.4-10.3C84.9,308.7,84.8,305.6,83,303.1z"/>
	<path class="st0" d="M227.4,457.8c-1.6,0.4-3.6,2.5-3.4,2.7c1.9,1.7,3.7,3.7,6.5,4c1,0.1,2.2,0.2,2-1.2
		C232,460.5,230,458.9,227.4,457.8z"/>
	<path class="st0" d="M324,2.3c-0.3,1.5,0.3,2.1,1.8,2c4-0.2,6.9,2.3,9.7,4.5c2.1,1.7,4.7,2.3,6.6,4.7c1.9,2.3,2.5,5.3,1.1,6.2
		c-1.8,1.2-1.9,6.6-7,3c-2.6-1.8-6.5-1.6-7.2-5.9c0-0.2-1.2-0.5-1.7-0.4c-7.3,1.5-8.9-6-13.7-8.6c-0.8-0.4-0.1-1.2,0.8-1.6
		c1.5-0.8,2.9-1.9,2.7-3.9C319.4,2.3,321.7,2.3,324,2.3z"/>
	<path class="st0" d="M431.6,289.2c-2,1.1-1.3,3-1.2,4.7c0.1,3.1-1.7,4.9-4.3,6c-2.2,0.9-4.1-0.2-5-2c-1-1.9,1.1-2.4,2.3-3
		c3-1.4,2.9-4.6,3.8-7c0.8-2.2,1.6-4,4.3-3.6C431.6,285.9,431.6,287.5,431.6,289.2z"/>
	<path class="st0" d="M411.8,152.9c-0.3,0.2-0.6,0.3-0.9,0.5c0-0.4,0.1-0.8,0.1-1.1C411.3,152.4,411.6,152.7,411.8,152.9z"/>
	<path class="st0" d="M227.4,457.8c2.6,1.1,4.7,2.7,5.1,5.5c0.2,1.4-1,1.3-2,1.2c-2.8-0.3-4.6-2.4-6.5-4
		C223.7,460.3,225.8,458.2,227.4,457.8z"/>
</g>
<path class="st1" d="M198.1,401.3c0,7.2-4,14.6-4,22.8c6.7,0.7,13.5,1.3,20.3,2c4.2,4.2,37.4,34.3,41.4,37.1
	c0.2,0.1,0.3,0.2,0.4,0.2c3.4,0.6,8-1.9,12.3-2.8c9.7-1.9,22.2,0.2,30,0c1.9-0.1,3.5-3,4.8-3c0.1,0,0.2,0,0.3,0
	c1.1-7.6,2.2-15.2,3.3-22.8c2.6-1.3,5.2-2.7,7.8-4c20.4-10.2,12.6-11.8,39.8-11.8c4.3-5.2,8.7-10.3,13-15.5
	c17,0,27.3-15.5,37.8-15.5c2.4,2.7,4.8,5.5,7.3,8.3c3.4-0.1,6.8-0.2,10.3-0.3c18.1-18.1,27.2-50,2.8-62.3c0-5.1-1.2-13.1-5.5-15.3"
	/>
</svg>
